<svg width="55" height="54" viewBox="0 0 55 54" fill="none" xmlns="http://www.w3.org/2000/svg">
<path d="M54.2002 27C54.2002 41.9117 42.1119 54 27.2002 54C12.2885 54 0.200195 41.9117 0.200195 27C0.200195 12.0883 12.2885 0 27.2002 0C42.1119 0 54.2002 12.0883 54.2002 27ZM24.0771 41.2963L44.1094 21.264C44.7896 20.5838 44.7896 19.4808 44.1094 18.8006L41.646 16.3372C40.9657 15.6568 39.8628 15.6568 39.1824 16.3372L22.8454 32.6741L15.218 25.0467C14.5377 24.3665 13.4348 24.3665 12.7544 25.0467L10.291 27.5102C9.61078 28.1904 9.61078 29.2934 10.291 29.9736L21.6136 41.2962C22.2939 41.9765 23.3968 41.9765 24.0771 41.2963Z" fill="#3DAF00"/>
</svg>
