<svg width="791" height="799" viewBox="0 0 791 799" fill="none" xmlns="http://www.w3.org/2000/svg">
<path d="M31.1626 543.713C7.86559 575.363 -2.97578 614.476 0.703434 653.603C4.38265 692.731 22.3254 729.137 51.1141 755.89C79.9027 782.642 117.526 797.87 156.817 798.674C196.109 799.478 234.323 785.801 264.182 760.249C208.515 750.669 156.84 725.094 115.462 686.643C74.0842 648.192 44.793 598.529 31.1626 543.713Z" fill="#BBFF00"/>
<path d="M135.558 312.935C94.6238 358.216 72.5014 417.404 73.7009 478.433C74.9004 539.461 99.3315 597.735 142.013 641.372C184.695 685.009 242.413 710.724 303.4 713.275C364.387 715.825 424.051 695.018 470.227 655.097C381.614 650.667 297.933 612.974 235.894 549.547C173.856 486.119 138.025 401.624 135.558 312.935Z" fill="#BBFF00"/>
<path d="M487.711 1.4205e-09C547.548 0.000183307 606.042 17.7345 655.805 50.9627C705.567 84.1908 744.365 131.422 767.298 186.69C790.231 241.957 796.269 302.782 784.649 361.48C773.03 420.177 744.275 474.114 702.017 516.478C659.758 558.841 605.892 587.729 547.223 599.493C488.555 611.258 427.715 605.37 372.391 582.574C317.067 559.778 269.74 521.097 236.389 471.417C203.038 421.737 185.159 363.286 185.011 303.45C184.912 263.636 192.669 224.193 207.837 187.381C223.005 150.569 245.286 117.111 273.404 88.9237C301.523 60.7359 334.925 38.3721 371.7 23.1132C408.474 7.85422 447.897 -0.000121967 487.711 1.4205e-09Z" fill="#BBFF00"/>
</svg>
