<svg width="54" height="54" viewBox="0 0 54 54" fill="none" xmlns="http://www.w3.org/2000/svg">
<path d="M27 0C12.0847 0 0 12.0847 0 27C0 41.9153 12.0847 54 27 54C41.9153 54 54 41.9153 54 27C54 12.0847 41.9153 0 27 0ZM40.2387 34.0875C40.7504 34.5992 40.7504 35.4266 40.2387 35.9383L35.9274 40.2387C35.4157 40.7504 34.5883 40.7504 34.0766 40.2387L27 33.0968L19.9125 40.2387C19.4008 40.7504 18.5734 40.7504 18.0617 40.2387L13.7613 35.9274C13.2496 35.4157 13.2496 34.5883 13.7613 34.0766L20.9032 27L13.7613 19.9125C13.2496 19.4008 13.2496 18.5734 13.7613 18.0617L18.0726 13.7504C18.5843 13.2387 19.4117 13.2387 19.9234 13.7504L27 20.9032L34.0875 13.7613C34.5992 13.2496 35.4266 13.2496 35.9383 13.7613L40.2496 18.0726C40.7613 18.5843 40.7613 19.4117 40.2496 19.9234L33.0968 27L40.2387 34.0875Z" fill="#C1121F"/>
</svg>
